<?xml version="1.0" encoding="utf-8"?>
<!-- Generator: Adobe Illustrator 15.1.0, SVG Export Plug-In . SVG Version: 6.00 Build 0)  -->
<!DOCTYPE svg PUBLIC "-//W3C//DTD SVG 1.1//EN" "http://www.w3.org/Graphics/SVG/1.1/DTD/svg11.dtd">
<svg version="1.1" id="Layer_1" xmlns="http://www.w3.org/2000/svg" xmlns:xlink="http://www.w3.org/1999/xlink" x="0px" y="0px"
	 width="384px" height="320px" viewBox="0 0 384 320" enable-background="new 0 0 384 320" xml:space="preserve">
<g>
	<g>
		<line fill="none" stroke="#939598" stroke-miterlimit="10" x1="352" y1="160" x2="346" y2="160"/>
		
			<line fill="none" stroke="#939598" stroke-miterlimit="10" stroke-dasharray="12.32,12.32" x1="333.68" y1="160" x2="44.16" y2="160"/>
		<line fill="none" stroke="#939598" stroke-miterlimit="10" x1="38" y1="160" x2="32" y2="160"/>
	</g>
</g>
<rect x="72" y="72" fill="#FFFFFF" stroke="#000000" stroke-width="0.75" stroke-miterlimit="10" width="112" height="80"/>
<rect x="200" y="72" fill="#FFFFFF" stroke="#000000" stroke-width="0.75" stroke-miterlimit="10" width="112" height="80"/>
<rect x="72" y="168" fill="#FFFFFF" stroke="#000000" stroke-width="0.75" stroke-miterlimit="10" width="112" height="80"/>
<rect x="200" y="168" fill="#FFFFFF" stroke="#000000" stroke-width="0.75" stroke-miterlimit="10" width="112" height="80"/>
<g>
	<g>
		<line fill="none" stroke="#939598" stroke-miterlimit="10" x1="192" y1="16" x2="192" y2="22"/>
		
			<line fill="none" stroke="#939598" stroke-miterlimit="10" stroke-dasharray="12.4211,12.4211" x1="192" y1="34.42" x2="192" y2="251.789"/>
		<line fill="none" stroke="#939598" stroke-miterlimit="10" x1="192" y1="258" x2="192" y2="264"/>
	</g>
</g>
<text transform="matrix(1 0 0 1 200 35)" fill="#808285" font-family="'Helvetica'" font-size="12">Chat Services</text>
<text transform="matrix(1 0 0 1 109.9668 35)" fill="#808285" font-family="'Helvetica'" font-size="12">Auth Services</text>
<text transform="matrix(-4.371139e-08 -1 1 -4.371139e-08 48 151.9995)" fill="#808285" font-family="'Helvetica'" font-size="12">Controller Layer</text>
<text transform="matrix(-4.371139e-08 -1 1 -4.371139e-08 48 241.3652)" fill="#808285" font-family="'Helvetica'" font-size="12">Service Layer</text>
<g>
	<g>
		
			<line fill="none" stroke="#009444" stroke-width="2" stroke-miterlimit="10" x1="186.776" y1="165.224" x2="197.224" y2="154.776"/>
		<g>
			<polygon fill="#009444" points="192.221,168.193 180.663,171.29 183.76,159.732 			"/>
		</g>
		<g>
			<polygon fill="#009444" points="200.193,160.221 203.29,148.663 191.732,151.76 			"/>
		</g>
	</g>
</g>
<g>
	<g>
		<line fill="none" stroke="#009444" stroke-width="2" stroke-miterlimit="10" x1="256" y1="152.611" x2="256" y2="167.389"/>
		<g>
			<polygon fill="#009444" points="250.051,154.362 256.033,144 262.017,154.362 			"/>
		</g>
		<g>
			<polygon fill="#009444" points="250.051,165.638 256.033,176 262.017,165.638 			"/>
		</g>
	</g>
</g>
<g>
	<g>
		<line fill="none" stroke="#ED1C24" stroke-width="1.9" stroke-miterlimit="10" x1="256" y1="49.485" x2="256" y2="78.515"/>
		<g>
			<path fill="#ED1C24" d="M249.786,57.404c0,0.204,0.102,0.403,0.286,0.521c0.287,0.183,0.669,0.098,0.853-0.189L256,49.767
				l5.075,7.969c0.184,0.288,0.565,0.373,0.853,0.189c0.287-0.184,0.37-0.567,0.189-0.853l-5.596-8.787
				C256.407,48.108,256.211,48,256,48s-0.407,0.108-0.521,0.286l-5.596,8.787C249.817,57.175,249.786,57.29,249.786,57.404
				C249.786,57.607,249.786,57.29,249.786,57.404z"/>
		</g>
		<g>
			<path fill="#ED1C24" d="M249.786,70.596c0-0.204,0.102-0.403,0.286-0.521c0.287-0.183,0.669-0.098,0.853,0.189L256,78.233
				l5.075-7.969c0.184-0.288,0.565-0.373,0.853-0.189c0.287,0.184,0.37,0.567,0.189,0.853l-5.596,8.787
				C256.407,79.892,256.211,80,256,80s-0.407-0.108-0.521-0.286l-5.596-8.787C249.817,70.825,249.786,70.71,249.786,70.596
				C249.786,70.393,249.786,70.71,249.786,70.596z"/>
		</g>
	</g>
</g>
<g>
	<g>
		<line fill="none" stroke="#ED1C24" stroke-width="1.9" stroke-miterlimit="10" x1="128" y1="49.485" x2="128" y2="78.515"/>
		<g>
			<path fill="#ED1C24" d="M121.787,57.404c0,0.204,0.101,0.403,0.286,0.521c0.287,0.183,0.669,0.098,0.853-0.189L128,49.767
				l5.075,7.969c0.183,0.288,0.565,0.373,0.853,0.189c0.287-0.184,0.37-0.567,0.189-0.853l-5.596-8.787
				C128.408,48.108,128.211,48,128,48s-0.408,0.108-0.521,0.286l-5.596,8.787C121.818,57.175,121.787,57.29,121.787,57.404
				C121.787,57.607,121.787,57.29,121.787,57.404z"/>
		</g>
		<g>
			<path fill="#ED1C24" d="M121.787,70.596c0-0.204,0.101-0.403,0.286-0.521c0.287-0.183,0.669-0.098,0.853,0.189L128,78.233
				l5.075-7.969c0.183-0.288,0.565-0.373,0.853-0.189c0.287,0.184,0.37,0.567,0.189,0.853l-5.596,8.787
				C128.408,79.892,128.211,80,128,80s-0.408-0.108-0.521-0.286l-5.596-8.787C121.818,70.825,121.787,70.71,121.787,70.596
				C121.787,70.393,121.787,70.71,121.787,70.596z"/>
		</g>
	</g>
</g>
<g>
	<g>
		<line fill="none" stroke="#009444" stroke-width="2" stroke-miterlimit="10" x1="128" y1="152.611" x2="128" y2="167.389"/>
		<g>
			<polygon fill="#009444" points="122.05,154.362 128.033,144 134.017,154.362 			"/>
		</g>
		<g>
			<polygon fill="#009444" points="122.05,165.638 128.033,176 134.017,165.638 			"/>
		</g>
	</g>
</g>
<text transform="matrix(1 0 0 1 96.0396 114)" font-family="'Helvetica'" font-size="10">AuthController</text>
<text transform="matrix(1 0 0 1 223.7637 114)" font-family="'Helvetica'" font-size="10">ChatController</text>
<text transform="matrix(1 0 0 1 101.042 210)" font-family="'Helvetica'" font-size="10">AuthService</text>
<text transform="matrix(1 0 0 1 228.7666 210)" font-family="'Helvetica'" font-size="10">ChatService</text>
<text transform="matrix(1 0 0 1 104 304.8379)" fill="#006838" font-family="'Helvetica'" font-size="10">Strongly typed Scala communication</text>
<g>
	<g>
		<line fill="none" stroke="#009444" stroke-width="2" stroke-miterlimit="10" x1="87.389" y1="300.838" x2="72.611" y2="300.838"/>
		<g>
			<polygon fill="#009444" points="85.638,294.889 96,300.871 85.638,306.854 			"/>
		</g>
		<g>
			<polygon fill="#009444" points="74.362,294.889 64,300.871 74.362,306.854 			"/>
		</g>
	</g>
</g>
<text transform="matrix(1 0 0 1 104 284)" fill="#BE1E2D" font-family="'Helvetica'" font-size="10">Weakly typed HTTP/HTML/JSON communication</text>
<g>
	<g>
		<line fill="none" stroke="#ED1C24" stroke-width="1.9" stroke-miterlimit="10" x1="94.515" y1="280" x2="65.485" y2="280"/>
		<g>
			<path fill="#ED1C24" d="M86.596,273.786c-0.204,0-0.403,0.102-0.521,0.286c-0.183,0.287-0.098,0.669,0.189,0.853L94.233,280
				l-7.969,5.075c-0.288,0.184-0.373,0.565-0.189,0.853c0.184,0.287,0.567,0.37,0.853,0.189l8.787-5.596
				C95.892,280.407,96,280.211,96,280s-0.108-0.407-0.286-0.521l-8.787-5.596C86.825,273.817,86.71,273.786,86.596,273.786
				C86.393,273.786,86.71,273.786,86.596,273.786z"/>
		</g>
		<g>
			<path fill="#ED1C24" d="M73.404,273.786c0.204,0,0.403,0.102,0.521,0.286c0.183,0.287,0.098,0.669-0.189,0.853L65.767,280
				l7.969,5.075c0.288,0.184,0.373,0.565,0.189,0.853c-0.184,0.287-0.567,0.37-0.853,0.189l-8.787-5.596
				C64.108,280.407,64,280.211,64,280s0.108-0.407,0.286-0.521l8.787-5.596C73.175,273.817,73.29,273.786,73.404,273.786
				C73.607,273.786,73.29,273.786,73.404,273.786z"/>
		</g>
	</g>
</g>
</svg>
